<svg xmlns="http://www.w3.org/2000/svg" width="16" height="16" viewBox="0 0 16 16" fill="none">
  <path d="M12.6279 3.92344C11.7647 3.54405 10.8419 3.26832 9.8771 3.11133C9.75856 3.31259 9.62015 3.5833 9.52473 3.79865C8.49908 3.65374 7.48286 3.65374 6.47611 3.79865C6.38069 3.5833 6.23909 3.31259 6.11957 3.11133C5.1537 3.26832 4.22978 3.54506 3.36669 3.92545C1.62583 6.39699 1.15391 8.80716 1.38987 11.1831C2.5445 11.9932 3.66348 12.4853 4.76357 12.8073C5.03519 12.4561 5.27744 12.0828 5.48614 11.6893C5.08868 11.5474 4.70799 11.3723 4.34828 11.169C4.44372 11.1026 4.53705 11.0331 4.62724 10.9617C6.82116 11.9258 9.20485 11.9258 11.3726 10.9617C11.4638 11.0331 11.5571 11.1026 11.6515 11.169C11.2907 11.3733 10.909 11.5484 10.5115 11.6903C10.7203 12.0828 10.9614 12.4571 11.2341 12.8083C12.3352 12.4863 13.4553 11.9942 14.6099 11.1831C14.8868 8.42878 14.1369 6.04075 12.6279 3.92344ZM5.78502 9.72191C5.12643 9.72191 4.58634 9.14425 4.58634 8.44086C4.58634 7.73742 5.11489 7.1588 5.78502 7.1588C6.45515 7.1588 6.99522 7.73641 6.98368 8.44086C6.98476 9.14425 6.45515 9.72191 5.78502 9.72191ZM10.2148 9.72191C9.55619 9.72191 9.01608 9.14425 9.01608 8.44086C9.01608 7.73742 9.54465 7.1588 10.2148 7.1588C10.8849 7.1588 11.425 7.73641 11.4135 8.44086C11.4135 9.14425 10.8849 9.72191 10.2148 9.72191Z" fill="white"/>
</svg>