<svg xmlns="http://www.w3.org/2000/svg" width="48" height="32" viewBox="0 0 48 32" fill="none">
  <g clip-path="url(#clip0_45_3360)">
    <path d="M0.35083 23.3814H3.49881C5.3602 23.3814 6.52296 24.2098 6.51089 25.4776C6.5057 26.0234 6.51089 26.7043 5.8048 27.3275C6.29376 27.3275 6.85469 27.9914 6.85469 29.3078C6.85469 30.9818 5.8768 31.8782 4.34023 31.8782H0.35083V23.3814ZM2.28189 25.2018V26.7444H3.80634C4.3702 26.7444 4.50495 26.2681 4.50495 26.0202V25.9613C4.50495 25.4776 4.31489 25.2254 3.80634 25.2254L2.28189 25.2018ZM2.28189 28.3505V30.1758H4.06956C4.49687 30.1758 4.65812 29.7386 4.65812 29.3527V29.226C4.65812 28.6434 4.38114 28.3618 3.87029 28.3618L2.28189 28.35V28.3505Z" fill="white"/>
    <path d="M9.07606 28.1019L6.15381 23.3818H8.69477L10.1052 26.1505L11.6556 23.3818H13.9679L11.1344 28.1019V31.8781H9.07606V28.1019Z" fill="white"/>
    <path d="M28.9677 26.127C28.9677 27.8427 27.6005 29.2233 24.6178 29.2233V31.8749H22.533V23.3936H25.6988C28.1447 23.3936 28.9677 24.4113 28.9677 26.127ZM24.6178 27.6385H25.3452C26.2833 27.6385 27.0194 27.1142 27.0194 26.127C27.0194 25.1398 26.421 24.8704 25.3452 24.8704H24.6178V27.6391V27.6385Z" fill="white"/>
    <path d="M0.35083 22.237V11.1174H3.29897L6.6779 17.0669L10.2411 11.1174H13.1892V22.237H10.2411V17.1567L6.6779 22.237L3.29897 17.1567V22.237H0.35083Z" fill="white"/>
    <path d="M16.8169 11.118H20.8294L23.7568 22.2376H21.1513L20.4659 20.1696H17.0882L16.4541 22.2376H13.7974L16.8175 11.118H16.8169ZM18.8234 14.0523L17.4959 18.1241H20.053L18.8234 14.0523Z" fill="white"/>
    <path d="M34.0813 11.118H42.347V13.6311H36.7133V15.3811H42.347V17.8306H36.7133V19.9146H42.347V22.237H34.0813V11.1174V11.118Z" fill="white"/>
    <path d="M29.4272 23.3936H35.7318V25.3108H31.4349V26.6454H35.7318V28.514H31.4349V30.1036H35.7318V31.8749H29.4272V23.3936Z" fill="white"/>
    <path d="M16.7778 23.3936H19.8382L22.0711 31.8749H20.0842L19.5612 30.2976H16.9846L16.5008 31.8749H14.4741L16.7778 23.3936ZM18.3086 25.6321L17.2961 28.7374H19.2468L18.3086 25.6321Z" fill="white"/>
    <path d="M28.0803 22.2531L24.3281 22.2429V11.1233L28.0803 11.0886C31.5957 11.0886 33.4732 12.722 33.4732 16.7547C33.4732 19.8484 31.6711 22.2531 28.0803 22.2531ZM26.9112 19.8484H28.0803C29.7211 19.8484 30.722 18.8467 30.722 16.7547C30.722 14.6627 29.9411 13.6873 28.0803 13.6873H26.9112V19.8484Z" fill="white"/>
    <path fill-rule="evenodd" clip-rule="evenodd" d="M36.4827 25.7518C36.4827 24.4289 37.4706 23.4679 39.0687 23.3369C40.4025 23.2273 41.6176 23.6908 42.5395 24.2776L41.6971 26.0746C41.6971 26.0746 40.7543 25.5508 40.2002 25.383C39.7654 25.2509 39.1873 25.3755 39.0687 25.6582C38.9501 25.941 38.972 26.2301 39.356 26.4151C39.3867 26.43 39.4209 26.4461 39.4583 26.4642C39.6705 26.5647 39.9906 26.7171 40.3534 26.9287H40.3594C40.3594 26.9287 41.1391 27.3312 41.7479 27.9779C41.7973 28.0271 41.8463 28.0779 41.894 28.1292H41.8838C42.2102 28.5156 42.4583 28.9753 42.4583 29.4804C42.4583 30.8027 41.3198 31.8551 39.7216 31.9861C38.3879 32.0956 37.1688 31.512 36.2466 30.9251L36.8981 29.1255C36.8981 29.1255 38.1871 29.6808 38.7405 29.8492C39.1753 29.9812 39.7534 29.8567 39.872 29.5739C39.9906 29.2911 40.0058 29.0896 39.5847 28.8171C39.4534 28.7321 39.296 28.6439 39.1181 28.5445C38.9851 28.4702 38.8407 28.3895 38.6875 28.2986C38.5209 28.2147 36.4809 27.1596 36.4809 25.7518H36.4827Z" fill="white"/>
    <path d="M45.8569 12.9427V11.0886H46.32L46.8978 12.0806L47.4494 11.0886H47.9982V12.9427H47.5352V12.0277L46.8978 12.9427L46.3489 12.0277V12.9427H45.8569Z" fill="white"/>
    <path d="M43.927 11.4788V11.0886H45.6825V11.4788H45.0426V12.9427H44.5729V11.4788H43.927Z" fill="white"/>
    <path d="M9.97039 0.854661L8.97464 0.696987C8.91648 0.687902 8.90666 0.615746 8.96024 0.593831C11.2743 -0.350079 13.7145 0.0363567 15.4929 1.5185C15.5563 1.57141 15.5396 1.66709 15.4641 1.70397C15.1439 1.86058 14.788 2.08827 14.629 2.19356C14.5801 2.22617 14.5127 2.22029 14.4695 2.1818C13.3298 1.16894 11.2219 1.03104 9.97039 0.854127V0.854661Z" fill="white"/>
    <path d="M32.7278 0.854661L33.7242 0.696987C33.7823 0.687902 33.7921 0.615746 33.7385 0.593831C31.4239 -0.350079 28.9837 0.0363567 27.2053 1.5185C27.1419 1.57141 27.1586 1.66709 27.2341 1.70397C27.5543 1.86058 27.9102 2.08827 28.0692 2.19356C28.1181 2.22617 28.1855 2.22029 28.2287 2.1818C29.3684 1.16894 31.4763 1.03104 32.7278 0.854127V0.854661Z" fill="white"/>
    <path d="M21.4088 1.66815C19.8089 1.66815 18.9139 1.2908 17.3393 1.26888C17.2863 1.26835 17.2599 1.20902 17.299 1.17588C18.4221 0.222348 20.5864 0 21.3385 0C21.9703 0 24.0661 0.175848 25.2859 1.16947C25.3273 1.20314 25.2997 1.26461 25.2444 1.26354C23.6658 1.24002 23.6543 1.66761 21.4082 1.66761L21.4088 1.66815Z" fill="white"/>
    <path fill-rule="evenodd" clip-rule="evenodd" d="M1.56932 9.45731H0.595437C0.424963 9.45731 0.307476 9.29695 0.365645 9.14836C0.472766 8.87366 0.612139 8.48134 0.630566 8.2547C0.647846 8.03823 0.640356 7.85919 0.63287 7.69668C0.618474 7.36906 0.606954 7.10874 0.813135 6.74529C0.982455 6.44707 1.16905 6.20812 1.35968 5.96496C1.59869 5.65974 1.84288 5.34762 2.06461 4.90183C2.23335 4.5619 2.34278 4.07818 2.45969 3.56027C2.56739 3.08297 2.68142 2.5768 2.85477 2.12836C3.21645 1.19408 3.34488 0.861623 4.22893 0.722654C5.09279 0.586891 6.07993 0.848793 7.08144 1.1155C7.65564 1.26837 8.23502 1.4223 8.79885 1.50301C9.15419 1.55379 9.51472 1.59815 9.87235 1.64198C11.3738 1.82638 12.8378 2.00597 13.7564 2.66339C13.8652 2.74143 13.8652 2.88948 13.7829 2.9921C13.439 3.42076 13.1522 4.1851 13.0975 5.10389C13.0578 5.76398 13.2259 6.58602 13.5352 7.6021C13.7138 8.18843 13.397 8.82232 13.1868 9.2435C13.173 9.27079 13.1603 9.29695 13.1476 9.32209C13.1073 9.40387 13.0198 9.45784 12.9224 9.45784H5.42858C5.29608 9.45784 5.18897 9.35788 5.18265 9.23496C5.12967 8.18308 4.69485 7.08525 3.57408 7.08525C2.45335 7.08525 1.95115 8.39527 1.81466 9.25634C1.79681 9.37071 1.69372 9.45837 1.56932 9.45837V9.45731ZM3.4641 5.79552C3.00854 5.34013 3.2199 4.92482 3.45718 4.45927C3.5378 4.30109 3.62191 4.137 3.68293 3.96327C3.74974 3.77408 3.80332 3.57578 3.8563 3.38068C4.06421 2.61262 4.26059 1.88677 5.21837 1.88677C5.21837 1.88677 5.87837 1.93969 6.25845 2.14974C7.21735 2.67943 7.15344 4.65385 6.19855 5.59188C5.38075 6.39521 3.87532 6.20654 3.4641 5.79496V5.79552ZM8.288 6.86396C9.20544 7.48558 10.6809 7.32202 11.3242 6.84096C12.1703 6.20812 12.3586 4.08887 11.641 3.47047C10.867 2.80396 10.0256 2.7302 9.11674 3.13428C8.08933 3.59128 7.64815 6.43103 8.28744 6.86396H8.288Z" fill="white"/>
    <path fill-rule="evenodd" clip-rule="evenodd" d="M41.1281 9.45731H42.1016C42.272 9.45731 42.3896 9.29695 42.3313 9.14836C42.224 8.87366 42.0846 8.48134 42.0663 8.2547C42.049 8.03823 42.0564 7.85919 42.0641 7.69668C42.0783 7.36906 42.0899 7.10874 41.8838 6.74529C41.7144 6.44707 41.5277 6.20812 41.3371 5.96496C41.0981 5.65974 40.8539 5.34762 40.6323 4.90183C40.4636 4.5619 40.3541 4.07818 40.2373 3.56027C40.1297 3.08297 40.0153 2.5768 39.842 2.12836C39.4803 1.19408 39.3521 0.861623 38.468 0.722654C37.604 0.586891 36.6168 0.848793 35.6156 1.1155C35.0412 1.26837 34.4619 1.4223 33.898 1.50301C33.5427 1.55379 33.1822 1.59815 32.8245 1.64198C31.3231 1.82638 29.8591 2.00597 28.9405 2.66339C28.8317 2.74143 28.8317 2.88948 28.914 2.9921C29.2578 3.42076 29.5446 4.1851 29.5994 5.10389C29.6391 5.76398 29.4709 6.58602 29.1617 7.6021C28.9998 8.1339 29.2446 8.70422 29.449 9.1195C29.5498 9.32423 29.7727 9.45784 30.0152 9.45784H37.2687C37.4018 9.45784 37.5084 9.35788 37.5147 9.23496C37.5677 8.18308 38.0025 7.08525 39.1234 7.08525C40.244 7.08525 40.747 8.39527 40.8828 9.25634C40.9005 9.37071 41.0039 9.45837 41.1281 9.45837V9.45731ZM39.2339 5.79552C39.6896 5.34013 39.4781 4.92482 39.241 4.45927C39.1601 4.30109 39.0768 4.137 39.0151 3.96327C38.9484 3.77408 38.8947 3.57578 38.8418 3.38068C38.6339 2.61262 38.4373 1.88677 37.4798 1.88677C37.4798 1.88677 36.8198 1.93969 36.4397 2.14974C35.4807 2.67943 35.5446 4.65385 36.4993 5.59188C37.3174 6.39521 38.8227 6.20654 39.2339 5.79496V5.79552ZM34.41 6.86396C33.4926 7.48558 32.0171 7.32202 31.3738 6.84096C30.5277 6.20812 30.3394 4.08887 31.057 3.47047C31.8311 2.80396 32.6725 2.7302 33.5813 3.13428C34.6087 3.59128 35.0499 6.43103 34.4106 6.86396H34.41Z" fill="white"/>
    <path fill-rule="evenodd" clip-rule="evenodd" d="M18.9373 9.4573H14.1601C14.0668 9.4573 14.0092 9.36325 14.0524 9.28681C14.607 8.31084 14.4077 7.62294 14.1848 6.85487C14.0201 6.28669 13.8422 5.6747 13.9493 4.87031C14.2355 3.32082 15.009 2.54473 16.5697 2.17219C17.3795 1.9787 18.343 2.12729 19.3416 2.28123C20.0333 2.38759 20.7411 2.49663 21.427 2.49663C21.9385 2.49663 22.5564 2.40576 23.2015 2.31116C24.2156 2.16203 25.2967 2.00383 26.1335 2.17219C27.7437 2.49663 28.6053 3.38175 28.694 4.788C28.7528 5.72442 28.5869 6.38612 28.4452 6.95002C28.243 7.7544 28.0916 8.36 28.7142 9.27879C28.766 9.35523 28.709 9.45786 28.6117 9.45786H23.7181C23.6086 9.45786 23.513 9.39049 23.4773 9.2943C23.3023 8.82555 22.6883 7.50856 21.328 7.50856C19.9677 7.50856 19.3537 8.82555 19.1781 9.2943C19.1424 9.38997 19.0462 9.45786 18.9373 9.45786V9.4573ZM18.2388 7.26269C17.2821 7.78489 16.0382 7.77687 15.5556 6.74531C15.0078 5.57316 15.54 3.91625 17.0823 3.50629C18.6978 3.07708 20.2608 3.2866 20.2021 4.41707C20.1583 5.25728 19.3572 6.65228 18.2388 7.26216V7.26269ZM27.1765 6.74531C26.6944 7.77687 25.4498 7.78436 24.4933 7.26269C23.3748 6.65228 22.5737 5.25728 22.5299 4.4176C22.4712 3.28714 24.0342 3.07762 25.6497 3.50682C27.1914 3.91678 27.7242 5.57369 27.1765 6.74584V6.74531Z" fill="white"/>
  </g>
  <defs>
    <clipPath id="clip0_45_3360">
      <rect width="48" height="32" fill="white"/>
    </clipPath>
  </defs>
</svg>